<?xml version="1.0" standalone="no"?><!DOCTYPE svg PUBLIC "-//W3C//DTD SVG 1.1//EN" "http://www.w3.org/Graphics/SVG/1.1/DTD/svg11.dtd"><svg t="1600788151677" class="icon" viewBox="0 0 1024 1024" version="1.1" xmlns="http://www.w3.org/2000/svg" p-id="581" xmlns:xlink="http://www.w3.org/1999/xlink" width="200" height="200"><defs><style type="text/css"></style></defs><path d="M222.72 512H341.333333a170.666667 170.666667 0 1 1 9.671111 56.888889H222.776889a85.333333 85.333333 0 1 1 0-56.888889z m567.011556 246.954667a113.777778 113.777778 0 1 1-37.546667 42.268444 28.615111 28.615111 0 0 1-3.640889-3.015111l-80.440889-80.440889a28.444444 28.444444 0 0 1 1.592889-41.699555A226.872889 226.872889 0 0 0 739.555556 512c0-27.818667-5.006222-54.442667-14.108445-79.075556l54.385778-17.009777C790.584889 446.008889 796.444444 478.264889 796.444444 512a283.306667 283.306667 0 0 1-68.494222 185.116444l60.871111 60.871112a28.899556 28.899556 0 0 1 0.910223 0.967111z m-23.665778-515.299556a113.777778 113.777778 0 1 1 45.511111 32.881778 28.444444 28.444444 0 0 1-5.461333 7.509333l-80.440889 80.440889a28.444444 28.444444 0 0 1-40.163556 0.056889l-0.113778 0.113778A227.043556 227.043556 0 0 0 512 284.444444c-70.257778 0-133.12 31.857778-174.819556 81.92l-42.951111-37.376A283.875556 283.875556 0 0 1 512 227.555556c74.922667 0 143.075556 28.956444 193.877333 76.231111l60.017778-60.017778 0.170667-0.113778zM512 625.777778a113.777778 113.777778 0 1 0 0-227.555556 113.777778 113.777778 0 0 0 0 227.555556z m-222.094222 63.943111l44.373333-35.555556a227.157333 227.157333 0 0 0 230.4 79.246223l13.198222 55.352888a285.240889 285.240889 0 0 1-287.971555-99.043555zM853.333333 227.555556a56.888889 56.888889 0 1 0 0-113.777778 56.888889 56.888889 0 0 0 0 113.777778z m0 682.666666a56.888889 56.888889 0 1 0 0-113.777778 56.888889 56.888889 0 0 0 0 113.777778zM142.222222 568.888889a28.444444 28.444444 0 1 0 0-56.888889 28.444444 28.444444 0 0 0 0 56.888889z" fill="#6A6A6A" p-id="582"></path></svg>